<svg width="558" height="142" viewBox="0 0 558 142" fill="none" xmlns="http://www.w3.org/2000/svg">
<path d="M34.187 110.065C39.4679 108.398 43.4981 99.6426 43.4981 89.6366V74.9056C11.8125 14.5918 7.78231 5.83658 -0.00011815 3.89098V2.91817C12.2294 4.02995 25.8486 3.19612 37.9392 2.91817V3.89098C26.8214 5.83658 24.8758 13.48 31.4075 25.1537L54.0599 66.2893C62.3982 51.8363 72.8211 29.1839 72.8211 19.4558C72.8211 5.83658 64.7608 4.58584 59.7578 3.89098V2.91817C71.7094 3.19612 83.383 3.89098 95.3346 2.91817V3.89098C87.1352 6.25349 81.2984 21.9573 55.4497 68.096V89.6366C55.4497 99.6426 59.4798 108.398 64.7608 110.065V111.177C56.0055 109.926 39.051 110.621 34.187 111.177V110.065ZM107.934 113.401C88.4783 113.401 75.5539 94.9175 75.5539 76.2953C75.5539 57.8121 87.9224 39.4678 107.1 39.4678C126.279 39.4678 133.644 55.0326 133.644 66.7063V70.5975H87.2275C88.6172 92.416 102.236 107.703 116.273 107.703C125.028 107.703 133.922 102.7 139.481 97.558L140.037 98.1139C129.753 108.259 119.052 113.401 107.934 113.401ZM87.0885 68.096H120.581C120.442 57.3951 118.357 42.3862 103.209 42.3862C94.0371 42.3862 87.0885 50.3076 87.0885 66.8452V68.096ZM166.697 113.401C157.802 113.401 149.047 111.177 145.99 109.093C148.074 106.452 149.186 96.4462 148.769 87.83H149.603C149.881 101.449 165.724 110.065 175.591 110.065C183.79 110.065 186.431 104.229 186.431 98.3918C186.431 76.5733 149.325 81.2983 149.325 57.2562C149.325 46.9723 155.996 39.4678 173.367 39.4678C179.76 39.4678 186.292 40.4406 189.349 39.3288L189.627 39.4678C187.542 41.9693 186.014 52.948 186.292 61.7033H185.458C183.79 47.1112 176.564 42.1082 166.558 42.1082C161.833 42.1082 156.274 43.22 156.274 50.8635C156.274 70.8754 193.657 67.6791 193.657 91.3043C193.657 100.337 188.237 113.401 166.697 113.401ZM220.414 113.401C210.408 113.401 206.655 106.174 206.655 93.8058V53.226C206.655 43.22 202.625 42.8031 197.344 42.8031V41.6913H198.317C203.598 41.6913 211.241 38.7729 216.522 23.347H217.217V41.6913H232.365V44.1928H217.217V91.0263C217.217 101.171 220.136 105.618 225.833 105.618C228.752 105.618 234.45 104.924 238.758 95.1955L239.036 95.4734C234.867 110.065 227.918 113.401 220.414 113.401ZM275.238 113.401C255.782 113.401 242.858 94.9175 242.858 76.2953C242.858 57.8121 255.226 39.4678 274.404 39.4678C293.582 39.4678 300.948 55.0326 300.948 66.7063V70.5975H254.531C255.921 92.416 269.54 107.703 283.576 107.703C292.332 107.703 301.226 102.7 306.785 97.558L307.34 98.1139C297.057 108.259 286.356 113.401 275.238 113.401ZM254.392 68.096H287.884C287.745 57.3951 285.661 42.3862 270.513 42.3862C261.341 42.3862 254.392 50.3076 254.392 66.8452V68.096ZM310.027 110.065C315.307 108.398 317.948 102.422 317.948 92.416V63.232C317.948 50.4465 313.918 48.6399 308.637 46.9723V45.8605C309.471 45.9994 310.582 45.9994 310.86 45.9994C316.558 45.9994 322.673 44.8877 327.815 41.6913L328.51 42.8031V57.951C331.984 48.223 336.709 39.4678 345.464 39.4678C349.495 39.4678 354.359 42.1082 360.473 45.1656C354.359 49.1958 350.189 55.8664 346.993 65.0386L346.02 64.6217C346.576 61.9812 346.993 59.6187 346.993 57.3951C346.993 52.6701 345.464 49.3348 340.322 49.4737C334.347 49.6127 330.038 56.2834 328.51 61.1474V92.416C328.51 102.422 331.15 108.398 339.211 110.065V111.177C334.486 110.621 329.344 110.482 325.313 110.482C318.365 110.482 312.945 110.899 310.027 111.177V110.065ZM390.372 113.401C371.194 113.401 356.88 98.2529 356.88 77.685C356.88 57.3951 370.638 39.4678 391.9 39.4678C398.015 39.4678 405.659 40.8575 412.468 46.5553V24.3198C412.468 11.5344 408.438 6.94835 401.767 5.28069V4.16892C408.021 4.72481 416.082 3.89098 422.335 -0.00023359L423.03 1.11154V91.8602C423.03 104.646 427.06 106.452 432.341 108.12V109.232C427.477 108.676 419.417 109.51 413.163 113.401L412.468 112.289V108.676C412.468 104.507 411.079 104.507 409.55 105.896C402.879 112.011 396.209 113.401 390.372 113.401ZM369.943 72.5431C369.943 97.2801 379.949 111.038 392.456 111.038C403.018 111.038 412.468 101.171 412.468 80.6034C412.468 59.2018 402.323 42.5252 387.87 42.5252C373.695 42.5252 369.943 58.5069 369.943 72.5431ZM473.64 113.401L472.945 112.289V110.76C472.945 102.7 464.329 113.401 454.879 113.401C443.9 113.401 437.229 106.869 437.229 98.1139C437.229 84.9116 452.794 76.4343 472.945 72.821V60.8694C472.945 51.1414 468.637 47.2502 461.549 47.2502C452.377 47.2502 444.039 53.9208 438.758 63.232L438.063 62.954C443.205 47.8061 452.933 39.4678 465.996 39.4678C476.836 39.4678 483.507 45.3046 483.507 58.09V91.8602C483.507 104.646 487.537 106.452 492.818 108.12V109.232C487.954 108.676 479.894 109.51 473.64 113.401ZM448.347 95.8903C448.347 104.229 452.794 109.788 460.021 109.788C464.468 109.788 468.915 107.008 472.945 102.7V74.4887C457.519 78.2409 448.347 84.0777 448.347 95.8903ZM500.758 141.195C494.921 141.195 490.613 138.555 488.389 134.525C491.725 128.688 491.864 118.543 491.447 114.652H492.558C492.697 131.189 499.507 137.582 504.649 137.582C511.598 137.582 516.74 126.186 522.298 111.177C498.673 47.9451 495.06 44.0538 489.918 42.8031V41.6913C494.226 41.9693 498.534 42.1082 502.981 42.1082C507.428 42.1082 511.876 41.9693 516.462 41.6913V42.8031C513.265 43.081 510.347 43.9149 510.347 47.1112C510.347 51.0024 514.655 62.6761 527.718 96.7242C535.362 76.5733 541.338 58.229 541.338 51.6973C541.338 45.7215 535.918 43.359 532.304 42.8031V41.6913C536.474 41.9693 540.643 42.1082 544.951 42.1082C549.12 42.1082 553.428 41.9693 557.458 41.6913V42.8031C551.344 44.4708 547.035 53.087 540.921 68.9298L523.827 113.401C516.462 132.718 511.32 141.195 500.758 141.195Z" fill="white"/>
</svg>
